<svg width="28" height="18" viewBox="0 0 28 18" fill="none" xmlns="http://www.w3.org/2000/svg">
<path fill-rule="evenodd" clip-rule="evenodd" d="M27.1294 8.72083C27.1294 8.46387 27.0273 8.21744 26.8456 8.03575C26.6639 7.85405 26.4175 7.75198 26.1606 7.75198L3.30938 7.75198L9.40729 1.65601C9.58921 1.47409 9.69141 1.22735 9.69141 0.970067C9.69141 0.712789 9.58921 0.466048 9.40729 0.284126C9.22537 0.102203 8.97862 -7.93395e-07 8.72135 -8.04641e-07C8.46407 -8.15887e-07 8.21733 0.102203 8.0354 0.284125L0.284645 8.03488C0.19442 8.12488 0.122837 8.23179 0.0739941 8.3495C0.0251526 8.4672 1.18309e-05 8.59339 1.18253e-05 8.72082C1.18197e-05 8.84826 0.0251526 8.97444 0.073994 9.09215C0.122837 9.20985 0.19442 9.31677 0.284645 9.40677L8.0354 17.1575C8.21733 17.3394 8.46407 17.4416 8.72135 17.4416C8.97862 17.4416 9.22536 17.3394 9.40729 17.1575C9.58921 16.9756 9.69141 16.7289 9.69141 16.4716C9.69141 16.2143 9.58921 15.9676 9.40729 15.7856L3.30938 9.68967L26.1606 9.68967C26.4175 9.68967 26.6639 9.58759 26.8456 9.4059C27.0273 9.22421 27.1294 8.97778 27.1294 8.72083Z" fill="#FFDFA1"/>
</svg>
