<svg width="455" height="414" viewBox="0 0 455 414" fill="none" xmlns="http://www.w3.org/2000/svg">
<path opacity="0.2" d="M376.324 344.5H227.495H78.6671L0 414H227.495H455L376.324 344.5Z" fill="url(#paint0_linear_3:39)"/>
<path d="M347.897 113.389C356.671 100.376 359.109 75.8915 355.073 60.7262C351.037 45.5515 340.195 32.3349 326.111 25.3988C310.337 17.6314 292.032 17.8346 274.485 16.6985C256.947 15.5625 239.769 12.5793 227.495 0C215.222 12.5793 198.044 15.5625 180.506 16.6985C162.968 17.8346 144.654 17.6406 128.88 25.3988C114.796 32.3349 103.954 45.5515 99.9177 60.7262C95.8818 75.9008 98.32 100.376 107.094 113.389H95.3923C86.157 113.389 78.6671 120.88 78.6671 130.116V344.5H376.324V130.116C376.324 120.88 368.834 113.389 359.598 113.389H347.897Z" fill="url(#paint1_linear_3:39)"/>
<path opacity="0.1" d="M227.495 280.245C302.198 280.245 362.757 219.683 362.757 144.976C362.757 70.2691 302.198 9.70694 227.495 9.70694C152.792 9.70694 92.2339 70.2691 92.2339 144.976C92.2339 219.683 152.792 280.245 227.495 280.245Z" fill="white"/>
<path opacity="0.1" d="M227.495 259.003C290.467 259.003 341.516 207.951 341.516 144.976C341.516 82.001 290.467 30.9496 227.495 30.9496C164.524 30.9496 113.475 82.001 113.475 144.976C113.475 207.951 164.524 259.003 227.495 259.003Z" fill="white"/>
<path opacity="0.1" d="M227.495 240.531C280.266 240.531 323.045 197.75 323.045 144.976C323.045 92.2027 280.266 49.4214 227.495 49.4214C174.725 49.4214 131.946 92.2027 131.946 144.976C131.946 197.75 174.725 240.531 227.495 240.531Z" fill="white"/>
<path opacity="0.1" d="M227.495 224.83C271.595 224.83 307.345 189.078 307.345 144.976C307.345 100.874 271.595 65.1225 227.495 65.1225C183.396 65.1225 147.646 100.874 147.646 144.976C147.646 189.078 183.396 224.83 227.495 224.83Z" fill="white"/>
<path opacity="0.1" d="M227.495 211.9C264.454 211.9 294.415 181.937 294.415 144.976C294.415 108.015 264.454 78.0527 227.495 78.0527C190.537 78.0527 160.576 108.015 160.576 144.976C160.576 181.937 190.537 211.9 227.495 211.9Z" fill="white"/>
<path d="M268.285 185.769C290.812 163.24 290.812 126.715 268.285 104.187C245.758 81.6588 209.235 81.6588 186.708 104.187C164.181 126.715 164.181 163.241 186.708 185.769C209.235 208.297 245.758 208.297 268.285 185.769Z" fill="white"/>
<path d="M215.228 127.193C216.948 119.858 212.396 112.517 205.061 110.797C197.727 109.077 190.386 113.629 188.667 120.964C186.947 128.299 191.498 135.64 198.833 137.36C206.168 139.08 213.508 134.528 215.228 127.193Z" fill="#FCE9FF"/>
<path d="M203.677 156.613C207.243 156.613 210.133 153.723 210.133 150.158C210.133 146.592 207.243 143.702 203.677 143.702C200.112 143.702 197.222 146.592 197.222 150.158C197.222 153.723 200.112 156.613 203.677 156.613Z" fill="#FCE9FF"/>
<path d="M222.222 141.513C222.222 143.609 220.523 145.299 218.435 145.299C216.339 145.299 214.649 143.6 214.649 141.513C214.649 139.416 216.348 137.726 218.435 137.726C220.523 137.726 222.222 139.425 222.222 141.513Z" fill="#FCE9FF"/>
<path d="M266.626 206.266L269.045 210.754C268.925 212.518 269.378 215.963 268.639 217.755L267.734 218.217C267.568 218.3 267.466 218.466 267.466 218.651C267.466 218.947 267.725 219.178 268.02 219.141L269.396 218.956C269.692 218.919 269.895 218.642 269.849 218.356L269.775 217.82C269.673 215.52 270.791 212.796 271.133 211.078C271.206 210.69 271.086 210.293 270.819 209.997C268.639 207.568 268.556 202.959 267.946 201.648L266.626 206.266Z" fill="#1F114D"/>
<path d="M249.014 193.705C249.18 193.696 249.319 193.825 249.337 193.982C249.356 194.121 249.448 194.231 249.586 194.259L250.713 194.49L250.408 194.647C250.057 194.832 249.753 195.118 249.577 195.478C249.217 196.208 249.383 197.058 249.937 197.593L250.141 197.796L250.057 197.87C249.337 198.498 248.774 199.283 248.414 200.161L248.33 200.373C248.183 200.743 247.924 201.057 247.601 201.278L246.613 201.953C246.474 202.045 246.336 202.128 246.179 202.183C245.375 202.479 244.535 202.257 243.981 201.694L242.087 199.754L239.492 197.279C239.705 197.261 239.899 197.141 240.009 196.965L240.268 196.559L239.815 196.42C239.603 196.356 239.381 196.393 239.206 196.522L238.412 197.113L236.417 197.658C235.724 197.852 235.059 198.147 234.468 198.554L233.849 198.969C233.628 199.117 233.535 199.394 233.618 199.653L233.739 200.022L233.655 200.133C233.6 200.207 233.582 200.318 233.628 200.401C233.683 200.53 233.84 200.595 233.979 200.549L234.717 200.272L233.711 200.872L233.831 200.955C233.988 201.066 234.2 201.066 234.367 200.964L234.542 200.854C234.958 200.983 235.392 200.604 235.392 200.604C236.204 201.066 237.211 201.232 238.116 200.983L242.863 205.213C244.221 206.423 246.114 206.82 247.841 206.257L249.799 205.619C250.852 206.506 252.062 207.023 253.41 207.254C254.093 208.39 254.832 209.637 255.506 210.782C255.183 212.454 256.338 214.015 256.929 214.966L257.76 219.649L256.975 219.944C256.772 220.027 256.642 220.23 256.67 220.452C256.707 220.711 256.947 220.895 257.206 220.859L258.729 220.646C259.071 220.6 259.284 220.249 259.173 219.926L258.97 219.335L257.917 214.67C258.212 211.983 256.91 210.339 256.91 210.339L255.987 206.737L256.578 206.663L256.882 208.141L263.153 205.619L262.719 203.957L263.015 203.707C264.068 203.892 264.548 203.809 264.548 203.809C265.314 206.21 266.127 208.612 266.894 211.013C266.09 213.137 266.81 215.215 265.324 218.272L264.418 218.66C264.206 218.753 264.077 218.965 264.095 219.196C264.114 219.51 264.4 219.732 264.705 219.695L266.09 219.501C266.358 219.464 266.543 219.215 266.496 218.947L266.423 218.485C266.718 215.834 268.759 213.026 268.556 211.595C268.362 210.163 267.466 207.882 268.085 204.114C268.694 200.355 267.919 199.043 267.263 198.147C266.607 197.251 266.09 196.928 266.09 196.928L266.145 196.143C264.954 196.199 263.726 195.922 262.664 195.367C261.602 194.813 260.697 193.973 260.05 192.966L259.265 193.16C258.563 192.523 258.157 191.433 257.889 190.519C257.621 189.604 257.372 188.653 256.762 187.923C256.254 187.323 255.617 186.87 255.026 186.353C255.183 186.288 255.432 186.178 255.589 186.113C255.035 184.968 254.426 183.859 253.742 182.788C253.308 182.114 252.828 181.458 252.274 180.876C251.748 180.313 250.999 180.017 250.233 180.054C249.928 180.073 249.623 180.063 249.319 180.036C248.921 179.999 248.598 180.331 248.663 180.728C248.691 180.941 248.866 181.098 249.079 181.116L249.125 181.717L249.282 181.726L249.383 183.084L249.614 183.121L250.224 187.655L250.861 187.572L250.87 190.084L249.679 191.026C249.014 191.553 248.589 192.32 248.515 193.169C248.45 193.456 248.7 193.714 249.014 193.705Z" fill="#1F114D"/>
<path d="M250.011 204.788C250.565 206.312 251.591 207.66 252.92 208.593C252.172 209.895 251.406 211.253 250.658 212.546C250.399 212.999 250.316 213.544 250.492 214.042C250.704 214.67 251.175 215.178 251.72 215.566C252.274 215.963 252.911 216.241 253.521 216.545C254.139 216.841 254.749 217.173 255.248 217.654C255.285 217.921 255.34 218.217 255.386 218.494C255.423 218.688 255.571 218.836 255.765 218.864H255.774C256.033 218.91 256.273 218.725 256.301 218.466C256.347 217.995 256.393 217.506 256.439 217.026C256.476 216.702 256.245 216.407 255.913 216.361C255.802 216.342 255.682 216.324 255.571 216.314C254.204 216.102 253.04 215.012 252.2 213.913C252.329 213.544 252.385 213.073 252.339 212.685C253.401 211.466 254.546 210.274 255.608 209.055C255.377 208.085 255.155 207.115 254.924 206.146C253.253 205.832 251.692 204.871 250.011 204.788Z" fill="#1F114D"/>
<path d="M242.761 197.833C241.459 198.009 240.12 197.907 238.873 197.51L238.975 197.178C240.896 197.787 243.066 197.676 244.913 196.873C246.76 196.069 248.321 194.564 249.189 192.744L249.503 192.892C248.598 194.786 246.973 196.356 245.052 197.196C244.322 197.51 243.546 197.723 242.761 197.833Z" fill="#1F114D"/>
<path d="M297.731 202.322L299.227 206.737C298.848 208.307 298.737 211.484 297.795 212.98L296.909 213.257C296.752 213.304 296.632 213.442 296.604 213.608C296.558 213.876 296.761 214.126 297.029 214.135L298.294 214.172C298.562 214.181 298.793 213.969 298.793 213.701L298.811 213.202C299.07 211.115 300.483 208.833 301.055 207.337C301.185 206.995 301.129 206.626 300.935 206.321C299.347 203.809 299.966 199.644 299.615 198.369L297.731 202.322Z" fill="#1F114D"/>
<path d="M282.991 198.461C283.259 199.921 283.979 201.288 285.032 202.331C284.164 203.393 283.259 204.492 282.4 205.545C282.095 205.915 281.938 206.395 282.021 206.866C282.123 207.457 282.464 207.993 282.898 208.427C283.342 208.87 283.868 209.221 284.376 209.581C284.884 209.942 285.392 210.33 285.761 210.838C285.752 211.087 285.761 211.355 285.761 211.613C285.761 211.789 285.872 211.946 286.048 212.01H286.057C286.279 212.084 286.528 211.964 286.593 211.733C286.713 211.318 286.824 210.884 286.934 210.459C287.017 210.173 286.851 209.868 286.565 209.775C286.463 209.748 286.362 209.711 286.26 209.674C285.06 209.277 284.182 208.113 283.591 207.005C283.757 206.691 283.887 206.275 283.905 205.924C285.041 204.991 286.26 204.086 287.396 203.153C287.331 202.248 287.285 201.343 287.221 200.429C285.761 199.902 284.496 198.794 282.991 198.461Z" fill="#1F114D"/>
<path d="M299.513 195.1C299.513 195.09 299.504 195.081 299.504 195.072C299.153 194.388 298.626 193.816 297.98 193.4C297.324 192.975 296.345 192.32 295.791 191.904C295.579 191.738 294.794 191.147 294.637 191.008C294.267 190.685 293.962 190.288 293.584 189.964C293.205 189.641 292.725 189.392 292.235 189.456C291.866 189.503 291.543 189.724 291.21 189.918C290.887 190.103 290.518 190.278 290.148 190.204C289.751 190.131 289.465 189.798 289.114 189.586C288.486 189.207 287.627 189.253 287.054 189.706C286.611 190.057 286.353 190.583 285.992 191.017C285.521 191.59 283.314 192.089 282.261 194.074L282.15 194.25C281.956 194.555 281.679 194.804 281.356 194.961L280.368 195.423C280.229 195.487 280.091 195.534 279.943 195.561C279.177 195.7 278.447 195.377 278.041 194.785L276.628 192.744L274.67 190.121C274.864 190.14 275.048 190.057 275.178 189.918L275.473 189.586L275.085 189.392C274.91 189.299 274.697 189.299 274.522 189.392L273.719 189.798L271.844 189.992C271.188 190.057 270.551 190.232 269.95 190.5L269.332 190.786C269.11 190.888 268.981 191.128 269.018 191.368L269.073 191.719L268.981 191.802C268.916 191.867 268.888 191.959 268.916 192.042C268.944 192.172 269.073 192.255 269.202 192.227L269.914 192.089L268.916 192.477L269.008 192.569C269.138 192.689 269.322 192.726 269.489 192.661L269.664 192.587C270.024 192.763 270.468 192.495 270.468 192.495C271.133 193.031 272.01 193.335 272.869 193.252L276.498 197.787C277.533 199.08 279.177 199.727 280.821 199.477L282.686 199.2C283.499 200.152 284.505 200.807 285.688 201.214C286.122 202.34 286.602 203.578 287.045 204.705C286.5 206.155 287.304 207.743 287.692 208.686L287.729 213.026L286.971 213.174C286.777 213.211 286.63 213.387 286.62 213.59C286.611 213.83 286.805 214.033 287.045 214.033L288.449 214.079C288.763 214.089 289.012 213.802 288.957 213.497L288.855 212.934L288.615 208.575C289.289 206.201 288.366 204.52 288.366 204.52L288.08 201.14L288.624 201.168L288.68 202.544L294.711 201.223L294.572 199.653L294.877 199.477C295.8 199.801 296.244 199.801 296.244 199.801C296.576 202.082 296.936 204.363 297.26 206.644C296.216 208.436 296.548 210.413 294.738 212.943L293.861 213.156C293.621 213.211 293.455 213.442 293.491 213.701C293.528 213.941 293.75 214.116 293.99 214.126L295.237 214.162C295.486 214.172 295.69 213.978 295.69 213.728V213.304C296.354 210.967 298.617 208.741 298.654 207.429C298.691 206.109 298.238 203.92 299.365 200.632C300.473 197.307 299.975 196.005 299.513 195.1Z" fill="#1F114D"/>
<path d="M325.834 205.314L327.755 208.732C327.69 210.089 326.637 212.029 326.092 213.414L325.4 213.775C325.27 213.839 325.197 213.969 325.197 214.116C325.197 214.347 325.409 214.513 325.631 214.486L326.683 214.319C326.905 214.283 327.062 214.079 327.025 213.848L326.961 213.433C327.284 211.438 329.112 210.256 329.352 208.935C329.408 208.639 329.306 208.335 329.094 208.113C327.385 206.284 327.256 202.738 326.776 201.74L325.834 205.314Z" fill="#1F114D"/>
<path d="M312.101 211.484C312.304 211.641 312.332 211.992 312.147 212.177C312.045 212.278 311.898 212.334 311.759 212.371C311.491 212.454 311.233 212.537 310.965 212.62C310.836 212.657 310.679 212.694 310.586 212.611C310.531 212.555 310.503 212.472 310.512 212.389C310.522 212.306 310.558 212.232 310.595 212.167C310.725 211.946 310.891 211.706 311.103 211.558C311.334 210.348 311.768 209.101 311.722 207.873C311.704 207.466 311.888 207.088 312.184 206.811C313.015 206.026 313.883 205.204 314.724 204.409C313.957 203.43 313.505 202.211 313.44 200.964C314.659 201.398 315.592 202.461 316.737 203.061C316.691 203.827 316.635 204.585 316.589 205.351C315.536 206.007 314.428 206.626 313.375 207.291C313.329 207.586 313.172 207.919 312.997 208.159C312.35 209.055 312.396 210.413 312.101 211.484Z" fill="#1F114D"/>
<path d="M327.579 199.93C327.579 199.921 327.57 199.911 327.57 199.902C327.358 199.293 326.97 198.757 326.48 198.341C325.982 197.916 325.234 197.261 324.818 196.854C324.652 196.697 324.07 196.115 323.95 195.977C323.673 195.663 323.46 195.303 323.183 194.989C322.906 194.684 322.528 194.416 322.112 194.416C321.798 194.416 321.502 194.564 321.207 194.684C320.911 194.804 320.588 194.906 320.293 194.804C319.969 194.693 319.766 194.388 319.498 194.176C319.018 193.788 318.298 193.742 317.762 194.056C317.356 194.296 317.079 194.712 316.737 195.035C316.284 195.46 314.382 195.635 313.292 197.187L313.181 197.325C312.987 197.566 312.729 197.741 312.443 197.833L311.565 198.11C311.445 198.147 311.316 198.175 311.196 198.184C310.54 198.221 309.967 197.87 309.69 197.335L308.73 195.487L307.382 193.086C307.539 193.123 307.705 193.077 307.834 192.975L308.12 192.735L307.816 192.532C307.677 192.44 307.502 192.412 307.345 192.467L306.624 192.726L305.036 192.68C304.482 192.661 303.927 192.735 303.401 192.901L302.847 193.068C302.653 193.132 302.514 193.308 302.524 193.52L302.533 193.816L302.45 193.88C302.394 193.927 302.357 194 302.367 194.074C302.376 194.185 302.478 194.268 302.588 194.259L303.198 194.222L302.321 194.435L302.394 194.527C302.487 194.647 302.644 194.693 302.782 194.656L302.939 194.61C303.216 194.795 303.623 194.619 303.623 194.619C304.121 195.136 304.823 195.487 305.544 195.506L308.083 199.681C308.813 200.872 310.115 201.583 311.51 201.555L313.098 201.528C313.671 202.414 314.447 203.061 315.389 203.532C315.629 204.52 315.897 205.601 316.146 206.589C315.536 207.743 316.035 209.147 316.257 209.979L315.823 213.599L315.176 213.645C315.01 213.654 314.871 213.784 314.844 213.95C314.816 214.153 314.945 214.338 315.148 214.366L316.321 214.55C316.58 214.597 316.82 214.384 316.811 214.116L316.792 213.636L317.06 209.979C317.873 208.067 317.282 206.571 317.282 206.571L317.402 203.717L317.854 203.8L317.753 204.954L322.925 204.502L322.98 203.181L323.248 203.07C323.978 203.44 324.356 203.486 324.356 203.486C324.384 205.425 324.439 207.365 324.476 209.304C323.414 210.681 323.479 212.371 321.696 214.292L320.939 214.375C320.736 214.393 320.57 214.569 320.57 214.791C320.57 214.994 320.736 215.169 320.939 215.197L321.973 215.363C322.177 215.4 322.371 215.252 322.398 215.049L322.444 214.698C323.248 212.814 325.381 211.207 325.557 210.117C325.732 209.018 325.584 207.143 326.877 204.52C328.133 201.869 327.856 200.733 327.579 199.93Z" fill="#1F114D"/>
<path d="M93.5268 289.26C123.828 286.203 152.024 272.746 178.825 258.273C184.902 254.985 190.969 251.633 197.056 248.308C217.771 236.984 238.707 226.021 261.306 219.408C298.83 208.436 339.918 210.616 376.342 224.719V344.5H78.6671V289.768C83.6449 289.925 88.6228 289.749 93.5268 289.26Z" fill="#1F114D"/>
<path d="M310.891 305.783C321.198 303.982 333.01 299.392 335.355 289.186C336.658 283.534 334.469 277.503 330.793 273.014C327.108 268.535 322.084 265.376 316.977 262.614C301.582 254.293 284.616 248.89 267.254 246.775C260.216 245.916 251.461 244.318 249.586 237.474C247.749 230.769 254.306 224.858 260.429 221.57C263.569 219.889 266.81 218.393 270.135 217.091C305.202 208.852 342.753 211.715 376.333 224.719V344.5H78.6671V334.147C98.597 317.91 122.674 306.725 148.053 302.578C201.821 293.804 257.224 315.157 310.891 305.783Z" fill="#FFDFA1"/>
<path d="M107.094 227.028C137.921 227.905 167.198 240.355 197.046 248.317C190.96 251.642 184.902 254.994 178.816 258.282C152.015 272.755 123.819 286.212 93.5176 289.269C88.6136 289.768 83.6449 289.934 78.6671 289.786V229.623C88.004 227.647 97.5627 226.751 107.094 227.028Z" fill="#1F114D"/>
<path d="M118.98 262.735C124.577 260.454 129.638 255.411 129.583 249.371C129.546 245.704 127.615 242.25 124.983 239.71C122.351 237.161 119.054 235.415 115.72 233.9C109.274 230.954 102.504 228.747 95.5686 227.278C99.4013 227.01 103.252 226.927 107.104 227.038C137.931 227.916 167.208 240.366 197.056 248.327C190.97 251.652 184.912 255.005 178.826 258.293C152.025 272.765 123.829 286.222 93.5276 289.279C88.6236 289.778 83.6549 289.944 78.6771 289.796V274.585C85.6405 270.502 93.2967 267.63 101.258 266.282C107.205 265.247 113.384 265.016 118.98 262.735Z" fill="#FFDFA1"/>
<path d="M108.498 113.39H120.199C111.426 100.377 108.988 75.8923 113.023 60.7269C117.059 45.5523 127.902 32.3357 141.986 25.3995C157.76 17.6321 176.064 17.8353 193.611 16.6993C208.222 15.7572 222.574 13.5222 234.053 5.54232C231.744 3.93527 229.556 2.10656 227.505 0.0100098C215.232 12.5893 198.054 15.5725 180.516 16.7085C162.978 17.8446 144.664 17.6506 128.89 25.4088C114.806 32.345 103.964 45.5616 99.9277 60.7362C95.8918 75.9108 98.33 100.386 107.104 113.399H95.4024C86.167 113.399 78.6771 120.89 78.6771 130.126V344.5H91.7821V130.116C91.7728 120.88 99.2627 113.39 108.498 113.39Z" fill="#1F114D"/>
<path d="M160.086 55.9235L160.548 58.7497C160.64 59.3223 161.084 59.7656 161.656 59.858L164.482 60.3198C164.759 60.366 164.759 60.7539 164.482 60.8001L161.656 61.2619C161.084 61.3542 160.64 61.7975 160.548 62.3702L160.086 65.1963C160.04 65.4734 159.652 65.4734 159.606 65.1963L159.144 62.3702C159.052 61.7975 158.609 61.3542 158.036 61.2619L155.21 60.8001C154.933 60.7539 154.933 60.366 155.21 60.3198L158.036 59.858C158.609 59.7656 159.052 59.3223 159.144 58.7497L159.606 55.9235C159.652 55.6557 160.049 55.6557 160.086 55.9235Z" fill="white"/>
<path d="M297.259 93.9755L297.61 96.1274C297.684 96.5615 298.017 96.9032 298.451 96.9679L300.603 97.3189C300.815 97.3558 300.815 97.6514 300.603 97.6883L298.451 98.0393C298.017 98.1132 297.675 98.4456 297.61 98.8797L297.259 101.032C297.223 101.244 296.927 101.244 296.89 101.032L296.539 98.8797C296.465 98.4456 296.133 98.1039 295.699 98.0393L293.547 97.6883C293.344 97.6514 293.344 97.3558 293.547 97.3189L295.699 96.9679C296.133 96.894 296.474 96.5615 296.539 96.1274L296.89 93.9755C296.918 93.7723 297.223 93.7723 297.259 93.9755Z" fill="white"/>
<path d="M156.466 181.92L156.928 184.709C157.02 185.273 157.454 185.707 158.018 185.799L160.807 186.261C161.074 186.307 161.074 186.695 160.807 186.732L158.018 187.194C157.454 187.286 157.02 187.72 156.928 188.283L156.466 191.073C156.42 191.341 156.032 191.341 155.995 191.073L155.533 188.283C155.441 187.72 155.007 187.286 154.443 187.194L151.654 186.732C151.387 186.686 151.387 186.298 151.654 186.261L154.443 185.799C155.007 185.707 155.441 185.273 155.533 184.709L155.995 181.92C156.041 181.652 156.429 181.652 156.466 181.92Z" fill="white"/>
<path d="M256.975 62.0007L257.418 64.6976C257.51 65.2425 257.935 65.6674 258.471 65.7505L261.168 66.1938C261.426 66.24 261.426 66.6094 261.168 66.6556L258.471 67.0989C257.926 67.1913 257.501 67.6162 257.418 68.1518L256.975 70.8487C256.929 71.1073 256.559 71.1073 256.513 70.8487L256.07 68.1518C255.977 67.6069 255.552 67.1821 255.017 67.0989L252.32 66.6556C252.062 66.6094 252.062 66.24 252.32 66.1938L255.017 65.7505C255.562 65.6581 255.987 65.2333 256.07 64.6976L256.513 62.0007C256.559 61.7329 256.929 61.7329 256.975 62.0007Z" fill="white"/>
<path d="M157.925 108.753C159.708 108.753 159.708 105.982 157.925 105.982C156.143 105.982 156.143 108.753 157.925 108.753Z" fill="white"/>
<path d="M216.727 42.2543C218.509 42.2543 218.509 39.4836 216.727 39.4836C214.944 39.4836 214.935 42.2543 216.727 42.2543Z" fill="white"/>
<path d="M205.949 70.8857C207.732 70.8857 207.732 68.1149 205.949 68.1149C204.167 68.1149 204.167 70.8857 205.949 70.8857Z" fill="white"/>
<path d="M306.31 70.8857C308.093 70.8857 308.093 68.1149 306.31 68.1149C304.528 68.1149 304.519 70.8857 306.31 70.8857Z" fill="white"/>
<path d="M351.25 151.081C353.032 151.081 353.032 148.31 351.25 148.31C349.467 148.31 349.467 151.081 351.25 151.081Z" fill="white"/>
<path d="M325.852 172.324C327.635 172.324 327.635 169.553 325.852 169.553C324.07 169.553 324.07 172.324 325.852 172.324Z" fill="white"/>
<path d="M141.144 157.085C142.927 157.085 142.927 154.314 141.144 154.314C139.362 154.314 139.362 157.085 141.144 157.085Z" fill="white"/>
<path d="M109.744 196.337C111.527 196.337 111.527 193.566 109.744 193.566C107.962 193.566 107.962 196.337 109.744 196.337Z" fill="white"/>
<path d="M130.524 133.071C132.306 133.071 132.306 130.3 130.524 130.3C128.741 130.3 128.741 133.071 130.524 133.071Z" fill="white"/>
<path d="M134.218 63.8017C136 63.8017 136 61.0309 134.218 61.0309C132.435 61.0309 132.435 63.8017 134.218 63.8017Z" fill="white"/>
<path d="M258.434 40.2501C260.216 40.2501 260.216 37.4794 258.434 37.4794C256.651 37.4794 256.651 40.2501 258.434 40.2501Z" fill="white"/>
<path d="M326.776 46.2535C328.558 46.2535 328.558 43.4827 326.776 43.4827C324.993 43.4827 324.993 46.2535 326.776 46.2535Z" fill="white"/>
<path d="M315.232 138.917C317.014 138.917 317.014 136.147 315.232 136.147C313.449 136.147 313.449 138.917 315.232 138.917Z" fill="white"/>
<path d="M112.672 159.236C114.454 159.236 114.454 156.466 112.672 156.466C110.889 156.466 110.889 159.236 112.672 159.236Z" fill="white"/>
<path d="M196.409 220.812C198.191 220.812 198.191 218.042 196.409 218.042C194.627 218.042 194.617 220.812 196.409 220.812Z" fill="white"/>
<path d="M147.147 220.194C148.93 220.194 148.93 217.423 147.147 217.423C145.365 217.423 145.365 220.194 147.147 220.194Z" fill="white"/>
<path d="M366.95 188.791C368.732 188.791 368.732 186.021 366.95 186.021C365.167 186.021 365.167 188.791 366.95 188.791Z" fill="white"/>
<path d="M337.396 74.8848C339.179 74.8848 339.179 72.114 337.396 72.114C335.614 72.114 335.614 74.8848 337.396 74.8848Z" fill="white"/>
<path d="M232.113 23.7825C233.895 23.7825 233.895 21.0117 232.113 21.0117C230.331 21.0117 230.331 23.7825 232.113 23.7825Z" fill="white"/>
<path d="M165.618 36.7128C167.401 36.7128 167.401 33.942 165.618 33.942C163.836 33.942 163.836 36.7128 165.618 36.7128Z" fill="white"/>
<defs>
<linearGradient id="paint0_linear_3:39" x1="227.498" y1="344.5" x2="227.498" y2="413.998" gradientUnits="userSpaceOnUse">
<stop stop-color="white"/>
<stop offset="0.8804" stop-color="white" stop-opacity="0"/>
</linearGradient>
<linearGradient id="paint1_linear_3:39" x1="227.498" y1="9.23592e-05" x2="227.498" y2="344.5" gradientUnits="userSpaceOnUse">
<stop stop-color="#4D3FA2"/>
<stop offset="0.583" stop-color="#D093CA"/>
<stop offset="0.8804" stop-color="#F0D5F2"/>
</linearGradient>
</defs>
</svg>
