<svg width="218" height="47" viewBox="0 0 218 47" fill="none" xmlns="http://www.w3.org/2000/svg">
<path d="M12.048 23.528L7.056 12.68H0.6V12.824C1.92 12.824 2.76 13.232 3.144 14.048L10.008 29H10.344L15.744 16.352V15.872L12.048 23.528ZM22.584 12.68H16.704V27.632C16.704 28.448 16.104 28.856 14.904 28.856V29H22.584V28.856C21.384 28.856 20.784 28.448 20.784 27.632V14.048C20.784 13.232 21.384 12.824 22.584 12.824V12.68ZM3.336 16.904L3.144 16.472L2.952 26.84C2.928 27.92 2.112 28.856 0.6 28.856V29H5.88V28.856C4.368 28.856 3.552 27.968 3.528 26.84L3.336 16.904ZM29.4861 16.76C27.9741 17.384 26.0541 17.696 23.7501 17.696V17.84C25.0701 17.84 25.5261 18.224 25.5261 19.112V25.856C25.5261 28.112 26.7021 29.24 29.0781 29.24C30.9021 29.24 32.1981 28.424 32.7981 27.296V27.152C32.3181 27.656 31.7661 27.896 31.1421 27.896C29.9661 27.896 29.4861 27.224 29.4861 25.856V16.76ZM37.4781 16.76C35.6781 17.384 33.7821 17.696 31.8141 17.696V17.84C33.0621 17.84 33.5181 18.224 33.5181 19.112V26.888C33.5181 28.304 34.5021 29.24 36.1581 29.24C37.7901 29.24 39.0381 28.568 39.4221 27.296H39.2781C38.8941 28.016 38.5101 28.376 38.1261 28.376C37.6941 28.376 37.4781 28.04 37.4781 27.392V16.76ZM45.7729 16.76C43.0129 16.88 41.0929 18.224 41.0929 20.264C41.0689 22.376 43.9729 23.72 46.1809 24.8C47.7169 25.544 48.9649 26.432 48.9649 27.32C48.9649 28.256 48.2449 28.856 46.8289 29.096V29.24C49.9969 29.12 51.8929 27.848 51.8929 25.568C51.9169 23.36 49.0609 22.112 46.8529 21.128C45.3169 20.432 44.0689 19.544 44.0449 18.512C44.0209 17.624 44.7409 17.096 45.7729 16.904V16.76ZM46.8289 16.904C47.8129 17.024 48.7009 17.744 48.7009 18.44C48.7249 19.04 48.3169 19.544 47.6209 19.568C47.9569 20.336 48.6289 20.72 49.6609 20.72C50.7889 20.72 51.4369 20.024 51.4369 19.232C51.4369 17.888 49.5409 16.928 46.8289 16.76V16.904ZM42.8689 25.088C41.7409 25.088 40.8289 25.808 40.8289 26.864C40.8289 28.28 42.6049 29.12 45.7729 29.24V29.096C44.2609 28.928 43.6369 28.184 43.6369 27.344C43.6369 26.648 44.1889 26.168 44.9809 26.144C44.5729 25.448 43.8529 25.088 42.8689 25.088ZM53.3544 12.44C54.6744 12.44 55.1304 12.824 55.1304 13.712V27.632C55.1304 28.448 54.5304 28.856 53.3304 28.856V29H60.8904V28.856C59.6904 28.856 59.0904 28.448 59.0904 27.632V11.36C57.5784 11.984 55.6584 12.296 53.3544 12.296V12.44ZM63.1605 13.16C63.1605 14.432 64.1685 15.272 65.6085 15.272C67.0485 15.272 68.0565 14.432 68.0565 13.16C68.0565 11.912 67.0485 11.072 65.6085 11.072C64.1685 11.072 63.1605 11.912 63.1605 13.16ZM61.9365 17.816C63.2565 17.816 63.7125 18.2 63.7125 19.088V27.632C63.7125 28.448 63.1125 28.856 61.9125 28.856V29H69.4725V28.856C68.2725 28.856 67.6725 28.448 67.6725 27.632V16.736C66.1605 17.36 64.2405 17.672 61.9365 17.672V17.816ZM76.2501 16.76C74.7381 17.384 72.8181 17.696 70.5141 17.696V17.84C71.8341 17.84 72.2901 18.224 72.2901 19.112V27.632C72.2901 28.448 71.6901 28.856 70.4901 28.856V29H78.0501V28.856C76.8501 28.856 76.2501 28.448 76.2501 27.632V16.76ZM80.4981 16.76C78.8661 16.76 77.5941 17.6 76.9941 18.68V18.824C77.3781 18.344 77.9061 18.104 78.5781 18.104C79.7061 18.104 80.2581 18.776 80.2581 20.144V27.632C80.2581 28.448 79.6581 28.856 78.4581 28.856V29H85.9941V28.856C84.8181 28.856 84.2181 28.448 84.2181 27.632V20.144C84.2181 17.888 82.9701 16.76 80.4981 16.76ZM88.4421 16.76C86.8101 16.76 85.5381 17.6 84.9381 18.68V18.824C85.3221 18.344 85.8501 18.104 86.5221 18.104C87.6501 18.104 88.2021 18.776 88.2021 20.144V27.632C88.2021 28.448 87.6021 28.856 86.4021 28.856V29H93.9621V28.856C92.7621 28.856 92.1621 28.448 92.1621 27.632V20.144C92.1621 17.888 90.9141 16.76 88.4421 16.76Z" fill="white"/>
<path d="M157.04 28.28C153.584 28.28 151.856 25.76 151.856 20.696C151.856 15.776 153.032 13.088 155.36 12.584V12.44C153.512 12.512 151.664 13.136 149.96 14.408C148.304 15.656 147.152 17.984 147.152 20.864C147.152 23.552 148.352 25.832 150.08 27.176C151.808 28.496 153.92 29.24 155.936 29.24C158.36 29.24 160.496 28.256 161.72 26.336L161.624 26.144C160.664 27.32 159.056 28.28 157.04 28.28ZM160.904 13.544C159.92 12.896 158.456 12.512 156.56 12.44V12.584C159.032 13.256 160.712 15.152 161.624 18.272H161.816V12.44H161.624L160.904 13.544ZM169.484 16.76C167.948 16.784 166.556 17.336 165.332 18.464C164.108 19.568 163.508 21.056 163.508 22.952C163.508 24.848 164.132 26.36 165.356 27.512C166.604 28.664 167.972 29.24 169.484 29.24V29.096C168.044 28.952 167.588 27.464 167.588 22.952C167.588 20.672 167.732 19.112 167.996 18.272C168.26 17.432 168.764 16.976 169.484 16.904V16.76ZM170.444 16.904C171.86 17.048 172.316 18.224 172.316 22.952C172.316 25.184 172.172 26.768 171.908 27.656C171.644 28.544 171.14 29.024 170.444 29.096V29.24C171.956 29.24 173.324 28.664 174.548 27.512C175.772 26.36 176.396 24.848 176.396 22.952C176.396 20.384 175.004 18.32 173.204 17.432C172.316 16.976 171.404 16.76 170.444 16.76V16.904ZM183.778 29L185.842 25.112L182.698 18.56C182.29 17.72 182.626 17.144 183.466 17.144V17H176.745V17.144C177.346 17.144 177.802 17.432 178.066 17.984L183.634 29H183.778ZM189.49 18.272C189.97 17.408 190.282 17.144 191.049 17.144V17H185.074V17.144C186.682 17.144 187.522 18.224 187.522 19.664C187.522 20.888 187.306 21.92 186.85 22.76L186.994 22.976L189.49 18.272ZM197.426 29.24C198.314 29.24 199.25 29.072 200.21 28.712C201.17 28.352 201.938 27.824 202.514 27.08V26.936C201.434 27.776 200.282 28.208 199.01 28.208C196.802 28.208 195.338 26.216 195.338 22.856C195.338 20.576 195.458 19.016 195.698 18.224C195.962 17.432 196.442 16.976 197.138 16.904V16.76C195.602 16.784 194.234 17.336 193.034 18.464C191.858 19.568 191.258 21.056 191.258 22.952C191.258 24.872 191.882 26.408 193.106 27.536C194.33 28.664 195.77 29.24 197.426 29.24ZM202.682 22.088C202.754 21.68 202.802 21.272 202.802 20.84C202.802 19.808 202.394 18.872 201.554 18.032C200.714 17.192 199.562 16.76 198.098 16.76V16.904C199.13 17.024 199.658 18.008 199.658 19.256C199.658 21.248 198.794 21.944 196.658 21.944V22.088H202.682ZM210.109 16.76C208.597 17.384 206.677 17.696 204.373 17.696V17.84C205.693 17.84 206.149 18.224 206.149 19.112V27.632C206.149 28.448 205.549 28.856 204.349 28.856V29H211.909V28.856C210.709 28.856 210.109 28.448 210.109 27.632V16.76ZM214.021 16.76C212.557 16.76 211.357 17.792 210.901 19.352V19.544C211.237 18.944 211.717 18.632 212.341 18.632C213.133 18.632 213.685 19.184 213.685 19.928C213.685 20.672 213.373 21.224 212.749 21.56C213.013 21.92 213.469 22.088 214.117 22.088C215.461 22.088 216.589 20.96 216.589 19.352C216.589 17.84 215.629 16.76 214.021 16.76Z" fill="white"/>
<rect x="103.813" y="7.33453" width="32" height="32" stroke="#FFDFA1"/>
<rect x="120.313" y="0.707106" width="32" height="32" transform="rotate(44.9462 120.313 0.707106)" stroke="#FFDFA1"/>
</svg>
