<svg width="28" height="18" viewBox="0 0 28 18" fill="none" xmlns="http://www.w3.org/2000/svg">
<path fill-rule="evenodd" clip-rule="evenodd" d="M-3.81199e-07 8.72083C-3.92431e-07 8.46387 0.102074 8.21744 0.283768 8.03575C0.465461 7.85405 0.711891 7.75198 0.968844 7.75198L23.82 7.75198L17.7221 1.65601C17.5402 1.47409 17.438 1.22735 17.438 0.970067C17.438 0.712789 17.5402 0.466048 17.7221 0.284126C17.904 0.102203 18.1508 -7.93395e-07 18.408 -8.04641e-07C18.6653 -8.15887e-07 18.9121 0.102203 19.094 0.284125L26.8447 8.03488C26.935 8.12488 27.0066 8.23179 27.0554 8.3495C27.1042 8.4672 27.1294 8.59339 27.1294 8.72082C27.1294 8.84826 27.1042 8.97444 27.0554 9.09215C27.0066 9.20985 26.935 9.31677 26.8447 9.40677L19.094 17.1575C18.9121 17.3394 18.6653 17.4416 18.408 17.4416C18.1508 17.4416 17.904 17.3394 17.7221 17.1575C17.5402 16.9756 17.438 16.7289 17.438 16.4716C17.438 16.2143 17.5402 15.9676 17.7221 15.7856L23.82 9.68967L0.968844 9.68967C0.711891 9.68967 0.465461 9.58759 0.283768 9.4059C0.102074 9.22421 -3.69968e-07 8.97778 -3.81199e-07 8.72083Z" fill="#FFDFA1"/>
</svg>
