<svg width="52" height="52" viewBox="0 0 52 52" fill="none" xmlns="http://www.w3.org/2000/svg">
<circle cx="26" cy="26" r="26" fill="white"/>
<path fill-rule="evenodd" clip-rule="evenodd" d="M26 44C35.941 44 44 35.941 44 26C44 16.059 35.941 8 26 8C16.059 8 8 16.059 8 26C8 35.941 16.059 44 26 44ZM26 46C37.046 46 46 37.046 46 26C46 14.954 37.046 6 26 6C14.954 6 6 14.954 6 26C6 37.046 14.954 46 26 46Z" fill="#84B49C"/>
<path d="M14 37.63C14 36.597 14.772 35.724 15.8 35.61C23.515 34.756 28.52 34.833 36.218 35.629C36.6024 35.6694 36.9667 35.8208 37.2665 36.0648C37.5663 36.3089 37.7885 36.6349 37.906 37.0031C38.0235 37.3714 38.0312 37.7658 37.9282 38.1384C37.8252 38.5109 37.616 38.8454 37.326 39.101C28.241 47.02 23.049 46.911 14.64 39.109C14.23 38.729 14 38.189 14 37.631V37.63Z" fill="#84B49C"/>
<path fill-rule="evenodd" clip-rule="evenodd" d="M36.115 36.623C28.478 35.833 23.545 35.759 15.909 36.604C15.395 36.661 15 37.1 15 37.631C15 37.917 15.119 38.188 15.32 38.376C19.488 42.242 22.646 43.989 25.733 44C28.831 44.011 32.159 42.278 36.669 38.348C36.8123 38.2205 36.9154 38.0541 36.9659 37.869C37.0164 37.684 37.012 37.4882 36.9533 37.3056C36.8946 37.123 36.7842 36.9614 36.6354 36.8404C36.4865 36.7194 36.3058 36.6442 36.115 36.624V36.623ZM15.69 34.616C23.486 33.753 28.564 33.831 36.322 34.634C36.9003 34.6944 37.4485 34.922 37.8994 35.2891C38.3503 35.6562 38.6844 36.1468 38.8607 36.7009C39.0371 37.2549 39.0481 37.8484 38.8924 38.4086C38.7367 38.9688 38.421 39.4714 37.984 39.855C33.409 43.843 29.599 46.015 25.727 46C21.844 45.986 18.202 43.777 13.961 39.842C13.6574 39.5592 13.4153 39.2168 13.2499 38.8362C13.0846 38.4556 12.9995 38.045 13 37.63C12.9985 36.8844 13.2722 36.1645 13.7686 35.6082C14.2649 35.0519 14.9491 34.6982 15.69 34.615V34.616Z" fill="#84B49C"/>
<path d="M34 22C34 24.1217 33.1571 26.1566 31.6569 27.6569C30.1566 29.1571 28.1217 30 26 30C23.8783 30 21.8434 29.1571 20.3431 27.6569C18.8429 26.1566 18 24.1217 18 22C18 19.8783 18.8429 17.8434 20.3431 16.3431C21.8434 14.8429 23.8783 14 26 14C28.1217 14 30.1566 14.8429 31.6569 16.3431C33.1571 17.8434 34 19.8783 34 22Z" fill="#84B49C"/>
<path fill-rule="evenodd" clip-rule="evenodd" d="M26 28C27.5913 28 29.1174 27.3679 30.2426 26.2426C31.3679 25.1174 32 23.5913 32 22C32 20.4087 31.3679 18.8826 30.2426 17.7574C29.1174 16.6321 27.5913 16 26 16C24.4087 16 22.8826 16.6321 21.7574 17.7574C20.6321 18.8826 20 20.4087 20 22C20 23.5913 20.6321 25.1174 21.7574 26.2426C22.8826 27.3679 24.4087 28 26 28ZM26 30C28.1217 30 30.1566 29.1571 31.6569 27.6569C33.1571 26.1566 34 24.1217 34 22C34 19.8783 33.1571 17.8434 31.6569 16.3431C30.1566 14.8429 28.1217 14 26 14C23.8783 14 21.8434 14.8429 20.3431 16.3431C18.8429 17.8434 18 19.8783 18 22C18 24.1217 18.8429 26.1566 20.3431 27.6569C21.8434 29.1571 23.8783 30 26 30Z" fill="#84B49C"/>
</svg>
