<svg width="14" height="11" viewBox="0 0 14 11" fill="none" xmlns="http://www.w3.org/2000/svg">
<path d="M6.45202 10.0459C6.51318 10.1347 6.59502 10.2074 6.69048 10.2576C6.78594 10.3077 6.89217 10.3339 7.00002 10.3339C7.10787 10.3339 7.2141 10.3077 7.30956 10.2576C7.40502 10.2074 7.48686 10.1347 7.54802 10.0459L13.548 1.37925C13.6175 1.27929 13.6582 1.16221 13.6658 1.04072C13.6734 0.919239 13.6475 0.798001 13.591 0.690181C13.5345 0.582362 13.4496 0.492084 13.3454 0.429157C13.2412 0.366231 13.1217 0.333061 13 0.333253H1.00002C0.878581 0.333754 0.759578 0.367351 0.655806 0.430428C0.552034 0.493506 0.467421 0.583678 0.411065 0.691248C0.354709 0.798818 0.328742 0.919716 0.335958 1.04094C0.343174 1.16216 0.383299 1.27913 0.452019 1.37925L6.45202 10.0459Z" fill="#A2A2A2"/>
</svg>
